HIERARCHY
ROOT root
{
	OFFSET	0	13.1	24.9
	CHANNELS 6  Xposition Yposition Zposition Xrotation Yrotation Zrotation
	JOINT spine_1
	{
		OFFSET	0	9.99999	0
		CHANNELS 3  Xrotation Yrotation Zrotation
		JOINT spine_2
		{
			OFFSET	0	112	-10
			CHANNELS 3  Xrotation Yrotation Zrotation
			JOINT spine_3
			{
				OFFSET	0	206.5	19.3
				CHANNELS 3  Xrotation Yrotation Zrotation
				JOINT spine_4
				{
					OFFSET	0	110.4	14.6
					CHANNELS 3  Xrotation Yrotation Zrotation
					JOINT neck_1
					{
						OFFSET	0	71.8	-50.3
						CHANNELS 3  Xrotation Yrotation Zrotation
						JOINT neck_2
						{
							OFFSET	0	86.2	-25.8
							CHANNELS 3  Xrotation Yrotation Zrotation
							JOINT head_ee
							{
								OFFSET	0	179.8	-8.7
								CHANNELS 3  Xrotation Yrotation Zrotation
								End Site
								{
									OFFSET	1	0	0
								}
							}
						}
					}
					JOINT left_clavicle
					{
						OFFSET	-43.2	22.4	-70.8
						CHANNELS 3  Xrotation Yrotation Zrotation
						JOINT left_shoulder
						{
							OFFSET	-93.9	-5.79999	48.7
							CHANNELS 3  Xrotation Yrotation Zrotation
							JOINT left_elbow
							{
								OFFSET	-291.4	-30.8	15.2
								CHANNELS 3  Xrotation Yrotation Zrotation
								JOINT left_lowarm_twist
								{
									OFFSET	-110.7	-3.89999	13.6
									CHANNELS 3  Xrotation Yrotation Zrotation
									JOINT left_hand
									{
										OFFSET	-110.7	-3.89999	13.6
										CHANNELS 3  Xrotation Yrotation Zrotation
										JOINT left_ee
										{
											OFFSET	-80.8	-5.10001	12.1
											CHANNELS 3  Xrotation Yrotation Zrotation
											End Site
											{
												OFFSET	1	0	0
											}
										}
									}
								}
							}
						}
					}
					JOINT right_clavicle
					{
						OFFSET	43.2	22.4	-70.8
						CHANNELS 3  Xrotation Yrotation Zrotation
						JOINT right_shoulder
						{
							OFFSET	93.9	-5.79999	48.7
							CHANNELS 3  Xrotation Yrotation Zrotation
							JOINT right_elbow
							{
								OFFSET	291.4	-30.8	15.2
								CHANNELS 3  Xrotation Yrotation Zrotation
								JOINT right_lowarm_twist
								{
									OFFSET	110.7	-3.89999	13.6
									CHANNELS 3  Xrotation Yrotation Zrotation
									JOINT right_hand
									{
										OFFSET	110.7	-3.89999	13.6
										CHANNELS 3  Xrotation Yrotation Zrotation
										JOINT right_ee
										{
											OFFSET	80.8	-5.10001	12.1
											CHANNELS 3  Xrotation Yrotation Zrotation
											End Site
											{
												OFFSET	1	0	0
											}
										}
									}
								}
							}
						}
					}
				}
			}
		}
	}
	JOINT left_hip
	{
		OFFSET	-82.8	-127.5	0.300001
		CHANNELS 3  Xrotation Yrotation Zrotation
		JOINT left_knee
		{
			OFFSET	-28.2	-396.7	2.2
			CHANNELS 3  Xrotation Yrotation Zrotation
			JOINT left_ankle
			{
				OFFSET	-11.7	-411.3	35.4
				CHANNELS 3  Xrotation Yrotation Zrotation
				JOINT left_toes
				{
					OFFSET	0	-60	-88.6
					CHANNELS 3  Xrotation Yrotation Zrotation
					JOINT left_foot_ee
					{
						OFFSET	-22.5	-16.5	-42.2
						CHANNELS 3  Xrotation Yrotation Zrotation
						End Site
						{
							OFFSET	1	0	0
						}
					}
				}
			}
		}
	}
	JOINT right_hip
	{
		OFFSET	82.8	-127.5	0.300001
		CHANNELS 3  Xrotation Yrotation Zrotation
		JOINT right_knee
		{
			OFFSET	28.2	-396.7	2.2
			CHANNELS 3  Xrotation Yrotation Zrotation
			JOINT right_ankle
			{
				OFFSET	11.7	-411.3	35.4
				CHANNELS 3  Xrotation Yrotation Zrotation
				JOINT right_toes
				{
					OFFSET	0	-60	-88.6
					CHANNELS 3  Xrotation Yrotation Zrotation
					JOINT right_foot_ee
					{
						OFFSET	22.5	-16.5	-42.2
						CHANNELS 3  Xrotation Yrotation Zrotation
						End Site
						{
							OFFSET	1	0	0
						}
					}
				}
			}
		}
	}
}
MOTION
Frames: 16
Frame Time: 0.02
2528.27150156 753.696 -1560.18980281 -38.2267880617 84.9583041186 42.3885441603 1.89947 -0.415627 -1.73439 1.9011 -0.304439 -1.75732 1.91052 0.0122107 -1.78344 1.90618 -0.269559 -1.763 -12.9382 11.6708 3.25743 -13.1774 20.1719 6.63671 -0.0 0.0 -0.0 2.14464 24.9729 5.72168 -25.4747 -30.9753 61.8448 0.331811 -9.3344 0.0270887 -59.0438 -5.16408 5.07042 -0.0840871 11.8237 4.34373 -0.0 0.0 -0.0 3.69841 2.62827 -6.98007 6.57703 27.2288 -72.5197 1.21472 31.0356 -0.337288 64.8433 2.22357 7.5361 -0.447594 -12.8073 -2.44861 0.0 0.0 0.0 28.8806 16.6003 -24.7834 -57.7158 -1.95845 8.26901 -3.16695 8.86851 0.466721 -21.801 0.0 0.0 -0.0 0.0 -0.0 11.9834 -2.42497 -9.77239 1.71907 0.0745978 0.253234 6.77079 22.8095 1.13329 -5.59971 0.0 0.0 0.0 0.0 0.0 
2516.22837086 756.557 -1552.33566728 -46.3792017638 86.1802893468 50.3108576242 1.88094 -0.162686 -1.66748 1.88249 -0.0562656 -1.67445 1.88411 0.242609 -1.65774 1.88027 -0.0222073 -1.67525 -13.9978 10.8521 2.31726 -14.2728 19.3002 5.67859 -0.0 0.0 -0.0 1.52528 24.0347 4.83967 -25.4141 -31.2743 63.4241 0.296096 -8.34467 0.0216002 -57.7576 -5.00527 5.02591 0.170873 11.4348 5.81177 -0.0 0.0 -0.0 4.02718 3.08265 -7.60568 4.95124 26.9863 -71.2842 1.22351 31.2185 -0.341835 64.7504 2.21461 7.52825 -0.106009 -11.5194 -4.08108 0.0 0.0 0.0 30.1444 17.1313 -23.2862 -49.1516 -1.14909 7.22821 -2.90917 7.80326 0.428531 -23.5103 0.0 0.0 -0.0 0.0 -0.0 10.8364 -1.46144 -9.8936 2.07867 0.0911634 0.305922 6.83937 20.7672 1.12131 -6.1071 0.0 0.0 0.0 0.0 0.0 
2504.0131702 751.579 -1542.52542393 -64.5873531182 86.6158886549 69.1061260585 2.06108 -0.300473 -1.8176 2.06289 -0.184225 -1.83303 2.06873 0.138943 -1.83702 2.06405 -0.152873 -1.83591 -11.1845 9.56795 -0.0988542 -11.3352 18.1613 2.50833 -0.0 0.0 -0.0 0.375028 23.0634 3.18821 -26.0247 -31.6875 66.3021 0.376486 -10.5645 0.034808 -54.6559 -4.62661 4.90398 1.06062 11.329 11.4987 -0.0 0.0 -0.0 4.01614 1.29613 -7.68138 3.80741 26.6202 -70.0667 1.43207 35.3499 -0.456363 65.2676 2.26467 7.57178 0.848455 -8.23636 -8.9494 0.0 0.0 0.0 26.6879 22.1944 -22.0738 -30.004 0.0439143 4.55203 3.97173 5.02417 -0.576192 -31.5688 0.0 0.0 -0.0 0.0 -0.0 9.33155 -1.24606 -9.64071 3.8299 0.176556 0.561005 11.2733 22.3666 1.84463 -8.26755 0.0 0.0 0.0 0.0 0.0 
2492.0978332 744.295 -1531.53235715 -96.4187131538 86.8389370512 100.965543209 2.39036 -0.36374 -1.83644 2.3922 -0.246167 -1.85585 2.39997 0.0710929 -1.87075 2.39516 -0.225197 -1.85851 -10.7134 8.2849 -0.502267 -10.8139 15.9741 1.69364 -0.0 0.0 -0.0 0.0400353 23.422 2.76476 -26.5436 -32.032 67.129 0.3219 -9.0603 0.0255046 -54.5314 -4.61156 4.89866 1.29463 10.1344 12.5914 -0.0 0.0 -0.0 3.68094 2.30674 -6.96496 0.412837 25.3989 -68.5433 1.70548 40.1891 -0.623972 66.9069 2.42589 7.70678 1.08046 -10.4245 -11.2943 0.0 0.0 0.0 21.6927 20.8867 -17.8818 -18.4849 0.310592 2.80738 19.9129 2.93301 -2.72718 -40.2945 0.0 0.0 -0.0 0.0 -0.0 8.99729 -1.2366 -9.32372 1.26799 0.0542874 0.186999 18.489 19.0785 2.8348 -13.4797 0.0 0.0 0.0 0.0 0.0 
2448.00393076 739.78 -1515.61439671 -95.232827446 88.3231511703 99.7938085965 2.4338 -0.13689 -1.99877 2.43603 -0.00945205 -2.00343 2.43597 0.328254 -1.97639 2.43052 0.0120665 -2.00341 -7.25228 8.71207 2.64945 -7.24481 14.312 4.44134 -0.0 0.0 -0.0 -0.0214129 23.4293 2.68145 -29.3922 -34.1712 66.9772 0.303257 -8.54353 0.0226518 -53.18 -4.44884 4.8388 2.2403 9.74677 18.7815 -0.0 0.0 -0.0 5.11747 3.02878 -9.78218 -7.41218 18.6841 -64.026 2.16218 46.9597 -0.939331 71.472 2.89452 8.05791 1.84956 -10.6312 -16.4488 0.0 0.0 0.0 14.1808 26.1493 -15.6846 -2.40408 0.0914934 0.357576 37.5448 -2.70794 -4.68379 -27.0921 0.0 0.0 -0.0 0.0 -0.0 2.91484 0.0532298 -8.56185 6.12765 0.30038 0.891606 28.0339 19.5338 4.08129 -25.0947 0.0 0.0 0.0 0.0 0.0 
2422.95185266 746.254 -1517.0912444 -8.63761228196 88.0327924873 12.3465880335 2.30529 -0.0666716 -1.95044 2.3074 0.0575513 -1.95073 2.30512 0.389821 -1.91227 2.30002 0.0829814 -1.94982 -9.53885 11.5802 10.0006 -9.32936 14.944 12.5212 -0.0 0.0 -0.0 0.918992 23.5563 3.97975 -30.6251 -32.8688 63.8729 0.543256 -15.0624 0.0718224 -51.9183 -4.29822 4.77945 1.87122 9.05838 16.0389 -0.0 0.0 -0.0 6.02624 1.08709 -11.6502 -10.4342 16.1003 -64.0842 1.82559 42.1204 -0.703032 75.5391 3.33447 8.33858 1.99812 -10.9125 -17.5427 0.0 0.0 0.0 13.2563 28.3554 -14.9558 -11.879 0.304008 1.79442 37.9176 6.75509 -4.67457 -11.6526 0.0 0.0 -0.0 0.0 -0.0 -0.262707 0.651807 -6.92308 4.73293 0.223633 0.691512 28.7622 23.1302 4.3055 -30.8287 0.0 0.0 0.0 0.0 0.0 
2422.78823973 746.254 -1515.63903326 -9.71946830866 88.2500638496 13.4290115148 2.30529 -0.0666716 -1.95044 2.3074 0.0575513 -1.95073 2.30512 0.389821 -1.91227 2.30002 0.0829814 -1.94982 -9.53885 11.5802 10.0006 -9.32936 14.944 12.5212 -0.0 0.0 -0.0 0.918992 23.5563 3.97975 -30.6251 -32.8688 63.8729 0.543256 -15.0624 0.0718224 -51.9183 -4.29822 4.77945 1.87122 9.05838 16.0389 -0.0 0.0 -0.0 6.02624 1.08709 -11.6502 -10.4342 16.1003 -64.0842 1.82559 42.1204 -0.703032 75.5391 3.33447 8.33858 1.99812 -10.9125 -17.5427 0.0 0.0 0.0 13.2563 28.3554 -14.9558 -11.879 0.304008 1.79442 37.9176 6.75509 -4.67457 -11.6526 0.0 0.0 -0.0 0.0 -0.0 -0.262707 0.651807 -6.92308 4.73293 0.223633 0.691512 28.7622 23.1302 4.3055 -30.8287 0.0 0.0 0.0 0.0 0.0 
2422.70673104 746.254 -1514.89619598 -10.3834075672 88.3608774532 14.0932409318 2.30529 -0.0666716 -1.95044 2.3074 0.0575513 -1.95073 2.30512 0.389821 -1.91227 2.30002 0.0829814 -1.94982 -9.53885 11.5802 10.0006 -9.32936 14.944 12.5212 -0.0 0.0 -0.0 0.918992 23.5563 3.97975 -30.6251 -32.8688 63.8729 0.543256 -15.0624 0.0718224 -51.9183 -4.29822 4.77945 1.87122 9.05838 16.0389 -0.0 0.0 -0.0 6.02624 1.08709 -11.6502 -10.4342 16.1003 -64.0842 1.82559 42.1204 -0.703032 75.5391 3.33447 8.33858 1.99812 -10.9125 -17.5427 0.0 0.0 0.0 13.2563 28.3554 -14.9558 -11.879 0.304008 1.79442 37.9176 6.75509 -4.67457 -11.6526 0.0 0.0 -0.0 0.0 -0.0 -0.262707 0.651807 -6.92308 4.73293 0.223633 0.691512 28.7622 23.1302 4.3055 -30.8287 0.0 0.0 0.0 0.0 0.0 
2422.68290294 746.254 -1514.67645751 -10.5973255078 88.3936066789 14.3072446906 2.30529 -0.0666716 -1.95044 2.3074 0.0575513 -1.95073 2.30512 0.389821 -1.91227 2.30002 0.0829814 -1.94982 -9.53885 11.5802 10.0006 -9.32936 14.944 12.5212 -0.0 0.0 -0.0 0.918992 23.5563 3.97975 -30.6251 -32.8688 63.8729 0.543256 -15.0624 0.0718224 -51.9183 -4.29822 4.77945 1.87122 9.05838 16.0389 -0.0 0.0 -0.0 6.02624 1.08709 -11.6502 -10.4342 16.1003 -64.0842 1.82559 42.1204 -0.703032 75.5391 3.33447 8.33858 1.99812 -10.9125 -17.5427 0.0 0.0 0.0 13.2563 28.3554 -14.9558 -11.879 0.304008 1.79442 37.9176 6.75509 -4.67457 -11.6526 0.0 0.0 -0.0 0.0 -0.0 -0.262707 0.651807 -6.92308 4.73293 0.223633 0.691512 28.7622 23.1302 4.3055 -30.8287 0.0 0.0 0.0 0.0 0.0 
2422.90940069 746.254 -1516.71922269 -8.89135854876 88.0885223909 12.6004796954 2.30529 -0.0666716 -1.95044 2.3074 0.0575513 -1.95073 2.30512 0.389821 -1.91227 2.30002 0.0829814 -1.94982 -9.53885 11.5802 10.0006 -9.32936 14.944 12.5212 -0.0 0.0 -0.0 0.918992 23.5563 3.97975 -30.6251 -32.8688 63.8729 0.543256 -15.0624 0.0718224 -51.9183 -4.29822 4.77945 1.87122 9.05838 16.0389 -0.0 0.0 -0.0 6.02624 1.08709 -11.6502 -10.4342 16.1003 -64.0842 1.82559 42.1204 -0.703032 75.5391 3.33447 8.33858 1.99812 -10.9125 -17.5427 0.0 0.0 0.0 13.2563 28.3554 -14.9558 -11.879 0.304008 1.79442 37.9176 6.75509 -4.67457 -11.6526 0.0 0.0 -0.0 0.0 -0.0 -0.262707 0.651807 -6.92308 4.73293 0.223633 0.691512 28.7622 23.1302 4.3055 -30.8287 0.0 0.0 0.0 0.0 0.0 
2418.80367594 747.502 -1518.37713836 1.16466319486 87.6891958266 2.21054462828 2.24448 -0.111191 -1.93202 2.24656 0.0119505 -1.93518 2.24589 0.344176 -1.90437 2.24083 0.0391549 -1.93482 -11.6767 11.7169 11.1975 -11.4357 14.9452 13.9406 -0.0 0.0 -0.0 1.17009 23.4957 4.31854 -30.5833 -32.5897 63.171 0.644655 -17.7106 0.100436 -51.2319 -4.21683 4.74578 1.71682 8.90931 14.9485 -0.0 0.0 -0.0 5.82018 -0.22858 -11.2692 -11.6292 16.1564 -63.9758 1.69849 40.0734 -0.619472 76.2366 3.41188 8.38355 2.07424 -11.912 -18.3944 0.0 0.0 0.0 13.7059 28.784 -14.8175 -16.0045 0.321817 2.42701 37.98 10.2457 -4.69655 -9.81964 0.0 0.0 -0.0 0.0 -0.0 -0.670568 0.732906 -6.19663 4.38294 0.205143 0.641017 28.1773 24.3042 4.28467 -31.9341 0.0 0.0 0.0 0.0 0.0 
2418.24934658 747.502 -1513.34057927 1.7290364868 88.4435648944 1.64586203422 2.24448 -0.111191 -1.93202 2.24656 0.0119505 -1.93518 2.24589 0.344176 -1.90437 2.24083 0.0391549 -1.93482 -11.6767 11.7169 11.1975 -11.4357 14.9452 13.9406 -0.0 0.0 -0.0 1.17009 23.4957 4.31854 -30.5833 -32.5897 63.171 0.644655 -17.7106 0.100436 -51.2319 -4.21683 4.74578 1.71682 8.90931 14.9485 -0.0 0.0 -0.0 5.82018 -0.22858 -11.2692 -11.6292 16.1564 -63.9758 1.69849 40.0734 -0.619472 76.2366 3.41188 8.38355 2.07424 -11.912 -18.3944 0.0 0.0 0.0 13.7059 28.784 -14.8175 -16.0045 0.321817 2.42701 37.98 10.2457 -4.69655 -9.81964 0.0 0.0 -0.0 0.0 -0.0 -0.670568 0.732906 -6.19663 4.38294 0.205143 0.641017 28.1773 24.3042 4.28467 -31.9341 0.0 0.0 0.0 0.0 0.0 
2414.52936932 749.289 -1521.22955165 0.187855547643 85.9773628446 2.77823580575 2.4156 -0.193293 -1.81759 2.41743 -0.0772625 -1.82621 2.41961 0.232017 -1.81306 2.41503 -0.0571847 -1.82695 -12.5764 11.5808 11.2305 -12.3499 14.8979 14.0437 -0.0 0.0 -0.0 1.58543 23.1032 4.86296 -30.5267 -32.4259 61.7193 0.808638 -21.8297 0.155939 -50.8492 -4.17163 4.72658 1.35185 9.64592 12.7896 -0.0 0.0 -0.0 5.92436 -1.29858 -11.4892 -12.491 16.2477 -63.4564 1.38056 34.3659 -0.426924 76.4082 3.431 8.39447 1.94255 -13.2578 -17.9636 0.0 0.0 0.0 14.3362 29.7625 -14.7049 -18.7795 0.308166 2.85251 36.2323 11.9423 -4.54567 -7.72296 0.0 0.0 -0.0 0.0 -0.0 -0.600971 0.582497 -5.54751 4.2721 0.199351 0.625004 27.8291 25.5225 4.29636 -33.4464 0.0 0.0 0.0 0.0 0.0 
2413.67670566 749.289 -1513.67896402 0.260086466335 87.0956630415 2.70587616176 2.4156 -0.193293 -1.81759 2.41743 -0.0772625 -1.82621 2.41961 0.232017 -1.81306 2.41503 -0.0571847 -1.82695 -12.5764 11.5808 11.2305 -12.3499 14.8979 14.0437 -0.0 0.0 -0.0 1.58543 23.1032 4.86296 -30.5267 -32.4259 61.7193 0.808638 -21.8297 0.155939 -50.8492 -4.17163 4.72658 1.35185 9.64592 12.7896 -0.0 0.0 -0.0 5.92436 -1.29858 -11.4892 -12.491 16.2477 -63.4564 1.38056 34.3659 -0.426924 76.4082 3.431 8.39447 1.94255 -13.2578 -17.9636 0.0 0.0 0.0 14.3362 29.7625 -14.7049 -18.7795 0.308166 2.85251 36.2323 11.9423 -4.54567 -7.72296 0.0 0.0 -0.0 0.0 -0.0 -0.600971 0.582497 -5.54751 4.2721 0.199351 0.625004 27.8291 25.5225 4.29636 -33.4464 0.0 0.0 0.0 0.0 0.0 
2412.29222668 750.023 -1511.9646427 -3.28964206976 87.7435513204 6.68058767003 2.4789 -0.277535 -1.82352 2.48074 -0.160958 -1.83747 2.48562 0.149263 -1.83846 2.48093 -0.14291 -1.83897 -13.8164 11.1256 11.1569 -13.6091 14.3866 13.996 -0.0 0.0 -0.0 2.15982 23.5473 5.6784 -29.9145 -32.0651 60.7526 0.875731 -23.4515 0.181769 -50.8364 -4.17012 4.72593 0.964709 11.7025 11.0139 -0.0 0.0 -0.0 5.84174 -2.01878 -11.3383 -12.6706 16.3006 -62.9845 1.19824 30.691 -0.328834 77.365 3.53824 8.45431 1.9894 -13.1372 -18.2354 0.0 0.0 0.0 14.8628 31.2546 -15.0514 -18.7666 0.308277 2.85053 33.9235 13.531 -4.33287 -7.92275 0.0 0.0 -0.0 0.0 -0.0 -0.273218 0.727403 -5.24922 2.46485 0.109322 0.362391 28.8291 25.5153 4.42022 -33.8971 0.0 0.0 0.0 0.0 0.0 
2408.46402191 745.8 -1523.83622674 1.13876027232 85.0610897582 2.75976226262 2.50353 -0.371433 -2.01378 2.50575 -0.242566 -2.03332 2.51402 0.100582 -2.04526 2.50826 -0.223622 -2.03549 -13.8984 10.8369 9.8043 -13.7808 14.6861 12.6546 -0.0 0.0 -0.0 2.88435 23.7719 6.68007 -28.4074 -31.8764 59.6462 0.970658 -25.6794 0.221241 -50.2089 -4.09628 4.69378 0.343102 11.9356 7.10786 -0.0 0.0 -0.0 5.84345 -0.700211 -11.3229 -12.4348 16.3085 -62.9335 0.882215 23.6062 -0.184358 78.3117 3.64531 8.51175 1.78372 -13.5712 -17.0167 0.0 0.0 0.0 15.9463 33.5898 -16.8144 -18.3657 0.311508 2.78912 32.2022 15.1343 -4.17268 -7.59994 0.0 0.0 -0.0 0.0 -0.0 -0.0644405 0.267118 -5.68493 1.12892 0.0481311 0.166547 30.7689 24.7835 4.61836 -34.3144 0.0 0.0 0.0 0.0 0.0 
